<svg width="1280" height="720" viewBox="0 0 1280 720" fill="none" xmlns="http://www.w3.org/2000/svg">
<g clip-path="url(#clip0_1_2)">
<rect width="1280" height="720" fill="#898FC9"/>
<path d="M518 351.839C329.2 354.728 94.6667 597.817 1 719H1278L1338 366.285C1327.33 247.91 1270.4 63.6478 1128 273.592C950 536.021 754 348.228 518 351.839Z" fill="#FFCA8A"/>
<path d="M549.4 58.2L550.2 63.4L494 143L493.8 139.8H555C560.467 139.8 563.933 139.067 565.4 137.6C566.867 136 567.867 133.333 568.4 129.6H571.8C571.8 136.133 571.867 141.133 572 144.6C572.133 148.067 572.333 151.267 572.6 154.2C571.667 153.933 570.133 153.8 568 153.8C566 153.667 563.6 153.533 560.8 153.4C558 153.267 555.067 153.2 552 153.2C548.933 153.2 545.867 153.2 542.8 153.2H484.4V149L549.4 58.2ZM552.6 58.2V192.2H536.6V79.4L549.4 58.2H552.6ZM640.828 58.2C650.295 58.2 658.628 60.4 665.828 64.8C673.161 69.0667 678.895 75.1333 683.028 83C687.161 90.8667 689.228 100.133 689.228 110.8C689.228 121.467 687.095 131.067 682.828 139.6C678.561 148 672.628 154.667 665.028 159.6C657.561 164.4 648.761 166.8 638.628 166.8C629.428 166.8 621.161 164.667 613.828 160.4C606.495 156 600.695 149.867 596.428 142C592.295 134 590.228 124.667 590.228 114C590.228 103.467 592.295 94 596.428 85.6C600.695 77.2 606.628 70.5333 614.228 65.6C621.828 60.6667 630.695 58.2 640.828 58.2ZM639.028 61.8C630.495 61.8 623.428 66.3333 617.828 75.4C612.361 84.4667 609.628 97.1333 609.628 113.4C609.628 125.4 611.028 135.067 613.828 142.4C616.628 149.6 620.361 154.867 625.028 158.2C629.828 161.533 634.961 163.2 640.428 163.2C649.095 163.2 656.161 158.667 661.628 149.6C667.095 140.4 669.828 127.667 669.828 111.4C669.828 99.4 668.428 89.8 665.628 82.6C662.828 75.2667 659.095 70 654.428 66.8C649.761 63.4667 644.628 61.8 639.028 61.8ZM768.15 58.2L768.95 63.4L712.75 143L712.55 139.8H773.75C779.217 139.8 782.683 139.067 784.15 137.6C785.617 136 786.617 133.333 787.15 129.6H790.55C790.55 136.133 790.617 141.133 790.75 144.6C790.883 148.067 791.083 151.267 791.35 154.2C790.417 153.933 788.883 153.8 786.75 153.8C784.75 153.667 782.35 153.533 779.55 153.4C776.75 153.267 773.817 153.2 770.75 153.2C767.683 153.2 764.617 153.2 761.55 153.2H703.15V149L768.15 58.2ZM771.35 58.2V192.2H755.35V79.4L768.15 58.2H771.35Z" fill="#2F3676"/>
<path d="M464.95 225.6C465.717 225.633 466.7 225.667 467.9 225.7C469.133 225.733 470.35 225.75 471.55 225.75C473.15 225.75 474.667 225.733 476.1 225.7C477.567 225.667 478.6 225.65 479.2 225.65C483.433 225.65 486.6 226.567 488.7 228.4C490.8 230.233 491.85 232.6 491.85 235.5C491.85 236.7 491.633 237.967 491.2 239.3C490.8 240.6 490.083 241.817 489.05 242.95C488.017 244.05 486.617 244.95 484.85 245.65C483.083 246.35 480.833 246.7 478.1 246.7H473.2V245.7H477.6C479.833 245.7 481.533 245.25 482.7 244.35C483.9 243.45 484.7 242.267 485.1 240.8C485.533 239.333 485.75 237.75 485.75 236.05C485.75 232.883 485.183 230.517 484.05 228.95C482.917 227.383 480.95 226.6 478.15 226.6C476.717 226.6 475.767 226.883 475.3 227.45C474.867 228.017 474.65 229.167 474.65 230.9V255.6C474.65 256.833 474.783 257.767 475.05 258.4C475.317 259 475.817 259.4 476.55 259.6C477.283 259.8 478.367 259.917 479.8 259.95V261C478.9 260.933 477.733 260.9 476.3 260.9C474.867 260.867 473.383 260.85 471.85 260.85C470.517 260.85 469.233 260.867 468 260.9C466.8 260.9 465.783 260.933 464.95 261V260C466.083 259.933 466.933 259.8 467.5 259.6C468.067 259.4 468.433 259 468.6 258.4C468.8 257.8 468.9 256.9 468.9 255.7V230.9C468.9 229.667 468.8 228.767 468.6 228.2C468.433 227.6 468.05 227.2 467.45 227C466.883 226.767 466.05 226.633 464.95 226.6V225.6ZM501.136 261.35C499.736 261.35 498.536 261.083 497.536 260.55C496.536 260.017 495.786 259.283 495.286 258.35C494.786 257.417 494.536 256.35 494.536 255.15C494.536 253.683 494.87 252.5 495.536 251.6C496.203 250.667 497.053 249.917 498.086 249.35C499.153 248.783 500.27 248.317 501.436 247.95C502.636 247.55 503.753 247.183 504.786 246.85C505.853 246.483 506.72 246.067 507.386 245.6C508.086 245.133 508.436 244.517 508.436 243.75V240.35C508.436 239.15 508.236 238.2 507.836 237.5C507.47 236.767 506.953 236.25 506.286 235.95C505.653 235.65 504.886 235.5 503.986 235.5C503.22 235.5 502.403 235.617 501.536 235.85C500.67 236.05 499.986 236.467 499.486 237.1C500.22 237.3 500.82 237.7 501.286 238.3C501.786 238.867 502.036 239.583 502.036 240.45C502.036 241.383 501.72 242.117 501.086 242.65C500.486 243.183 499.72 243.45 498.786 243.45C497.753 243.45 496.986 243.133 496.486 242.5C495.986 241.833 495.736 241.067 495.736 240.2C495.736 239.3 495.953 238.567 496.386 238C496.853 237.433 497.453 236.9 498.186 236.4C498.986 235.867 500.003 235.417 501.236 235.05C502.503 234.683 503.903 234.5 505.436 234.5C506.87 234.5 508.103 234.667 509.136 235C510.203 235.3 511.086 235.8 511.786 236.5C512.62 237.267 513.17 238.233 513.436 239.4C513.703 240.533 513.836 241.917 513.836 243.55V257.35C513.836 258.183 513.936 258.783 514.136 259.15C514.37 259.483 514.736 259.65 515.236 259.65C515.57 259.65 515.886 259.567 516.186 259.4C516.52 259.233 516.903 258.983 517.336 258.65L517.836 259.5C517.136 260.067 516.42 260.517 515.686 260.85C514.986 261.183 514.086 261.35 512.986 261.35C511.92 261.35 511.053 261.183 510.386 260.85C509.72 260.517 509.22 260.033 508.886 259.4C508.586 258.767 508.436 257.983 508.436 257.05C507.57 258.45 506.536 259.517 505.336 260.25C504.136 260.983 502.736 261.35 501.136 261.35ZM503.536 258.95C504.47 258.95 505.336 258.683 506.136 258.15C506.97 257.617 507.736 256.817 508.436 255.75V245.8C508.07 246.333 507.536 246.8 506.836 247.2C506.136 247.567 505.386 247.95 504.586 248.35C503.786 248.75 503.02 249.217 502.286 249.75C501.586 250.25 501.003 250.9 500.536 251.7C500.07 252.5 499.836 253.517 499.836 254.75C499.836 256.05 500.17 257.083 500.836 257.85C501.503 258.583 502.403 258.95 503.536 258.95ZM528.73 270.4C526.864 270.4 525.13 270.217 523.53 269.85C521.964 269.483 520.697 268.917 519.73 268.15C518.797 267.417 518.33 266.467 518.33 265.3C518.33 264.2 518.797 263.233 519.73 262.4C520.664 261.567 521.98 260.933 523.68 260.5L524.03 261.3C523.33 261.6 522.78 262.083 522.38 262.75C522.014 263.417 521.83 264.15 521.83 264.95C521.83 266.417 522.514 267.55 523.88 268.35C525.247 269.15 527.047 269.55 529.28 269.55C530.78 269.55 532.197 269.35 533.53 268.95C534.897 268.583 535.997 267.967 536.83 267.1C537.697 266.233 538.13 265.117 538.13 263.75C538.13 262.683 537.747 261.783 536.98 261.05C536.214 260.35 534.697 260 532.43 260H528.93C527.764 260 526.68 259.9 525.68 259.7C524.68 259.5 523.864 259.117 523.23 258.55C522.63 257.95 522.33 257.117 522.33 256.05C522.33 254.85 522.83 253.717 523.83 252.65C524.83 251.583 526.514 250.533 528.88 249.5L529.48 249.95C528.514 250.483 527.647 251.033 526.88 251.6C526.147 252.133 525.78 252.8 525.78 253.6C525.78 254.667 526.547 255.2 528.08 255.2H534.03C535.597 255.2 537.014 255.417 538.28 255.85C539.547 256.25 540.564 256.9 541.33 257.8C542.097 258.7 542.48 259.883 542.48 261.35C542.48 262.917 541.964 264.383 540.93 265.75C539.93 267.15 538.414 268.267 536.38 269.1C534.347 269.967 531.797 270.4 528.73 270.4ZM529.03 250.35C527.33 250.35 525.78 250.083 524.38 249.55C522.98 248.983 521.88 248.117 521.08 246.95C520.28 245.783 519.88 244.283 519.88 242.45C519.88 240.617 520.28 239.117 521.08 237.95C521.88 236.75 522.98 235.883 524.38 235.35C525.78 234.783 527.33 234.5 529.03 234.5C530.797 234.5 532.364 234.783 533.73 235.35C535.097 235.883 536.18 236.75 536.98 237.95C537.78 239.117 538.18 240.617 538.18 242.45C538.18 244.283 537.78 245.783 536.98 246.95C536.18 248.117 535.097 248.983 533.73 249.55C532.364 250.083 530.797 250.35 529.03 250.35ZM529.03 249.45C530.197 249.45 531.097 248.95 531.73 247.95C532.364 246.95 532.68 245.117 532.68 242.45C532.68 239.783 532.364 237.95 531.73 236.95C531.097 235.917 530.197 235.4 529.03 235.4C527.93 235.4 527.047 235.917 526.38 236.95C525.714 237.95 525.38 239.783 525.38 242.45C525.38 245.117 525.714 246.95 526.38 247.95C527.047 248.95 527.93 249.45 529.03 249.45ZM536.43 238.7L535.53 238.35C535.997 237.183 536.797 236.167 537.93 235.3C539.064 234.433 540.247 234 541.48 234C542.414 234 543.147 234.267 543.68 234.8C544.247 235.3 544.53 236.017 544.53 236.95C544.53 237.983 544.247 238.717 543.68 239.15C543.147 239.583 542.58 239.8 541.98 239.8C541.447 239.8 540.947 239.617 540.48 239.25C540.047 238.883 539.797 238.317 539.73 237.55C539.664 236.75 539.914 235.733 540.48 234.5L541.03 234.7C539.697 235.233 538.714 235.8 538.08 236.4C537.48 236.967 536.93 237.733 536.43 238.7ZM557.951 234.5C560.885 234.5 563.185 235.383 564.851 237.15C566.518 238.917 567.351 241.717 567.351 245.55H550.101L550.001 244.6H562.051C562.085 242.967 561.951 241.467 561.651 240.1C561.351 238.7 560.885 237.583 560.251 236.75C559.618 235.917 558.785 235.5 557.751 235.5C556.318 235.5 555.068 236.267 554.001 237.8C552.968 239.3 552.335 241.717 552.101 245.05L552.251 245.3C552.218 245.767 552.185 246.283 552.151 246.85C552.118 247.383 552.101 247.917 552.101 248.45C552.101 250.75 552.451 252.683 553.151 254.25C553.851 255.817 554.768 257 555.901 257.8C557.035 258.567 558.185 258.95 559.351 258.95C560.251 258.95 561.118 258.817 561.951 258.55C562.818 258.25 563.635 257.767 564.401 257.1C565.168 256.4 565.851 255.45 566.451 254.25L567.451 254.65C567.051 255.783 566.435 256.9 565.601 258C564.768 259.1 563.701 260 562.401 260.7C561.101 261.367 559.585 261.7 557.851 261.7C555.518 261.7 553.485 261.183 551.751 260.15C550.018 259.083 548.685 257.567 547.751 255.6C546.818 253.633 546.351 251.3 546.351 248.6C546.351 245.633 546.835 243.1 547.801 241C548.768 238.9 550.118 237.3 551.851 236.2C553.618 235.067 555.651 234.5 557.951 234.5ZM615.552 225.6V226.6C614.419 226.667 613.569 226.867 613.002 227.2C612.436 227.533 612.052 228.083 611.852 228.85C611.686 229.583 611.602 230.633 611.602 232V261.2C611.336 261.2 611.069 261.2 610.802 261.2C610.536 261.2 610.252 261.2 609.952 261.2L588.752 230.4V254.4C588.752 255.8 588.852 256.9 589.052 257.7C589.252 258.467 589.686 259.017 590.352 259.35C591.019 259.683 592.036 259.9 593.402 260V261C592.769 260.933 591.952 260.9 590.952 260.9C589.986 260.867 589.069 260.85 588.202 260.85C587.369 260.85 586.536 260.867 585.702 260.9C584.869 260.9 584.186 260.933 583.652 261V260C584.752 259.9 585.586 259.7 586.152 259.4C586.719 259.067 587.102 258.517 587.302 257.75C587.502 256.983 587.602 255.933 587.602 254.6V230.9C587.602 229.667 587.502 228.767 587.302 228.2C587.102 227.6 586.719 227.2 586.152 227C585.586 226.767 584.752 226.633 583.652 226.6V225.6C584.186 225.633 584.869 225.667 585.702 225.7C586.536 225.733 587.369 225.75 588.202 225.75C588.936 225.75 589.652 225.733 590.352 225.7C591.052 225.667 591.669 225.633 592.202 225.6L610.452 251.7V232.2C610.452 230.767 610.336 229.667 610.102 228.9C609.902 228.133 609.469 227.583 608.802 227.25C608.136 226.883 607.136 226.667 605.802 226.6V225.6C606.402 225.633 607.202 225.667 608.202 225.7C609.202 225.733 610.136 225.75 611.002 225.75C611.836 225.75 612.669 225.733 613.502 225.7C614.336 225.667 615.019 225.633 615.552 225.6ZM630.121 234.5C632.355 234.5 634.338 234.967 636.071 235.9C637.805 236.833 639.188 238.3 640.221 240.3C641.255 242.3 641.771 244.917 641.771 248.15C641.771 251.383 641.255 254 640.221 256C639.188 257.967 637.805 259.417 636.071 260.35C634.338 261.25 632.355 261.7 630.121 261.7C627.921 261.7 625.938 261.25 624.171 260.35C622.405 259.417 621.005 257.967 619.971 256C618.971 254 618.471 251.383 618.471 248.15C618.471 244.917 618.971 242.3 619.971 240.3C621.005 238.3 622.405 236.833 624.171 235.9C625.938 234.967 627.921 234.5 630.121 234.5ZM630.121 235.5C628.388 235.5 626.971 236.5 625.871 238.5C624.771 240.467 624.221 243.683 624.221 248.15C624.221 252.617 624.771 255.833 625.871 257.8C626.971 259.733 628.388 260.7 630.121 260.7C631.821 260.7 633.221 259.733 634.321 257.8C635.455 255.833 636.021 252.617 636.021 248.15C636.021 243.683 635.455 240.467 634.321 238.5C633.221 236.5 631.821 235.5 630.121 235.5ZM654.057 226.95V235.25H660.957V236.25H654.057V255.9C654.057 257.267 654.307 258.233 654.807 258.8C655.307 259.367 656.024 259.65 656.957 259.65C657.824 259.65 658.59 259.3 659.257 258.6C659.957 257.9 660.557 256.717 661.057 255.05L662.007 255.4C661.607 257.167 660.89 258.667 659.857 259.9C658.857 261.1 657.374 261.7 655.407 261.7C654.274 261.7 653.324 261.55 652.557 261.25C651.79 260.983 651.124 260.583 650.557 260.05C649.824 259.283 649.324 258.367 649.057 257.3C648.79 256.233 648.657 254.817 648.657 253.05V236.25H644.057V235.25H648.657V227.95C649.69 227.917 650.657 227.833 651.557 227.7C652.457 227.533 653.29 227.283 654.057 226.95ZM700.607 225.6C700.474 226.933 700.374 228.233 700.307 229.5C700.274 230.767 700.257 231.733 700.257 232.4C700.257 233.167 700.274 233.9 700.307 234.6C700.341 235.3 700.374 235.9 700.407 236.4H699.257C698.957 233.967 698.541 232.067 698.007 230.7C697.507 229.3 696.741 228.3 695.707 227.7C694.674 227.067 693.191 226.75 691.257 226.75H688.607C687.541 226.75 686.724 226.85 686.157 227.05C685.624 227.217 685.257 227.583 685.057 228.15C684.857 228.683 684.757 229.533 684.757 230.7V255.6C684.757 256.833 684.891 257.767 685.157 258.4C685.424 259 685.924 259.4 686.657 259.6C687.391 259.8 688.474 259.917 689.907 259.95V261C689.007 260.933 687.841 260.9 686.407 260.9C684.974 260.867 683.491 260.85 681.957 260.85C680.624 260.85 679.341 260.867 678.107 260.9C676.907 260.9 675.891 260.933 675.057 261V260C676.191 259.933 677.041 259.8 677.607 259.6C678.174 259.4 678.541 259 678.707 258.4C678.907 257.8 679.007 256.9 679.007 255.7V230.9C679.007 229.667 678.907 228.767 678.707 228.2C678.541 227.6 678.157 227.2 677.557 227C676.991 226.767 676.157 226.633 675.057 226.6V225.6C676.357 225.633 677.707 225.667 679.107 225.7C680.541 225.7 681.941 225.717 683.307 225.75C684.707 225.75 686.007 225.75 687.207 225.75C688.407 225.75 689.391 225.75 690.157 225.75C691.691 225.75 693.424 225.75 695.357 225.75C697.324 225.717 699.074 225.667 700.607 225.6ZM692.957 243.1C692.957 243.1 692.957 243.267 692.957 243.6C692.957 243.933 692.957 244.1 692.957 244.1H683.257C683.257 244.1 683.257 243.933 683.257 243.6C683.257 243.267 683.257 243.1 683.257 243.1H692.957ZM694.007 236.5C693.874 238.4 693.807 239.85 693.807 240.85C693.841 241.85 693.857 242.767 693.857 243.6C693.857 244.433 693.874 245.35 693.907 246.35C693.941 247.35 694.024 248.8 694.157 250.7H693.007C692.874 249.6 692.674 248.55 692.407 247.55C692.141 246.517 691.657 245.683 690.957 245.05C690.257 244.417 689.207 244.1 687.807 244.1V243.1C688.874 243.1 689.707 242.883 690.307 242.45C690.941 242.017 691.424 241.45 691.757 240.75C692.091 240.05 692.324 239.333 692.457 238.6C692.624 237.833 692.757 237.133 692.857 236.5H694.007ZM714.594 234.5C716.827 234.5 718.811 234.967 720.544 235.9C722.277 236.833 723.661 238.3 724.694 240.3C725.727 242.3 726.244 244.917 726.244 248.15C726.244 251.383 725.727 254 724.694 256C723.661 257.967 722.277 259.417 720.544 260.35C718.811 261.25 716.827 261.7 714.594 261.7C712.394 261.7 710.411 261.25 708.644 260.35C706.877 259.417 705.477 257.967 704.444 256C703.444 254 702.944 251.383 702.944 248.15C702.944 244.917 703.444 242.3 704.444 240.3C705.477 238.3 706.877 236.833 708.644 235.9C710.411 234.967 712.394 234.5 714.594 234.5ZM714.594 235.5C712.861 235.5 711.444 236.5 710.344 238.5C709.244 240.467 708.694 243.683 708.694 248.15C708.694 252.617 709.244 255.833 710.344 257.8C711.444 259.733 712.861 260.7 714.594 260.7C716.294 260.7 717.694 259.733 718.794 257.8C719.927 255.833 720.494 252.617 720.494 248.15C720.494 243.683 719.927 240.467 718.794 238.5C717.694 236.5 716.294 235.5 714.594 235.5ZM753.23 234.65V255.6C753.23 257.1 753.48 258.217 753.98 258.95C754.513 259.65 755.463 260 756.83 260V261.05C755.796 260.95 754.763 260.9 753.73 260.9C752.63 260.9 751.58 260.95 750.58 261.05C749.58 261.15 748.663 261.333 747.83 261.6V256.15C746.996 258.15 745.83 259.583 744.33 260.45C742.863 261.283 741.313 261.7 739.68 261.7C738.446 261.7 737.396 261.517 736.53 261.15C735.663 260.817 734.946 260.367 734.38 259.8C733.78 259.133 733.363 258.283 733.13 257.25C732.896 256.183 732.78 254.85 732.78 253.25V240.65C732.78 239.15 732.53 238.05 732.03 237.35C731.53 236.617 730.58 236.25 729.18 236.25V235.2C730.246 235.3 731.28 235.35 732.28 235.35C733.38 235.35 734.43 235.3 735.43 235.2C736.43 235.067 737.346 234.883 738.18 234.65V254.65C738.18 255.617 738.246 256.5 738.38 257.3C738.513 258.1 738.83 258.733 739.33 259.2C739.83 259.667 740.63 259.9 741.73 259.9C742.896 259.9 743.93 259.55 744.83 258.85C745.763 258.15 746.496 257.2 747.03 256C747.563 254.8 747.83 253.45 747.83 251.95V240.65C747.83 239.15 747.58 238.05 747.08 237.35C746.58 236.617 745.63 236.25 744.23 236.25V235.2C745.296 235.3 746.33 235.35 747.33 235.35C748.43 235.35 749.48 235.3 750.48 235.2C751.48 235.067 752.396 234.883 753.23 234.65ZM776.623 234.5C777.956 234.5 779.04 234.683 779.873 235.05C780.74 235.383 781.456 235.85 782.023 236.45C782.623 237.083 783.04 237.9 783.273 238.9C783.54 239.9 783.673 241.25 783.673 242.95V256.35C783.673 257.75 783.94 258.7 784.473 259.2C785.04 259.7 785.973 259.95 787.273 259.95V261C786.706 260.967 785.823 260.933 784.623 260.9C783.423 260.833 782.24 260.8 781.073 260.8C779.94 260.8 778.806 260.833 777.673 260.9C776.573 260.933 775.74 260.967 775.173 261V259.95C776.306 259.95 777.106 259.7 777.573 259.2C778.04 258.7 778.273 257.75 778.273 256.35V241.55C778.273 240.583 778.19 239.717 778.023 238.95C777.856 238.15 777.506 237.517 776.973 237.05C776.44 236.55 775.64 236.3 774.573 236.3C773.34 236.3 772.24 236.65 771.273 237.35C770.34 238.05 769.59 239.017 769.023 240.25C768.49 241.45 768.223 242.8 768.223 244.3V256.35C768.223 257.75 768.456 258.7 768.923 259.2C769.423 259.7 770.223 259.95 771.323 259.95V261C770.79 260.967 769.973 260.933 768.873 260.9C767.806 260.833 766.69 260.8 765.523 260.8C764.39 260.8 763.206 260.833 761.973 260.9C760.74 260.933 759.823 260.967 759.223 261V259.95C760.523 259.95 761.44 259.7 761.973 259.2C762.54 258.7 762.823 257.75 762.823 256.35V240.65C762.823 239.15 762.573 238.05 762.073 237.35C761.573 236.617 760.623 236.25 759.223 236.25V235.2C760.29 235.3 761.323 235.35 762.323 235.35C763.456 235.35 764.506 235.3 765.473 235.2C766.473 235.067 767.39 234.883 768.223 234.65V240.1C769.09 238.033 770.273 236.583 771.773 235.75C773.306 234.917 774.923 234.5 776.623 234.5ZM812.75 221.8V255.55C812.75 257.05 813 258.167 813.5 258.9C814.033 259.6 814.983 259.95 816.35 259.95V261C815.317 260.9 814.283 260.85 813.25 260.85C812.117 260.85 811.05 260.9 810.05 261C809.083 261.1 808.183 261.283 807.35 261.55V227.8C807.35 226.3 807.083 225.2 806.55 224.5C806.05 223.767 805.117 223.4 803.75 223.4V222.35C804.817 222.45 805.85 222.5 806.85 222.5C807.95 222.5 809 222.45 810 222.35C811 222.217 811.917 222.033 812.75 221.8ZM801.5 234.5C802.967 234.5 804.3 234.817 805.5 235.45C806.733 236.083 807.6 237.15 808.1 238.65L807.5 239.2C807.033 238 806.35 237.133 805.45 236.6C804.55 236.033 803.533 235.75 802.4 235.75C800.5 235.75 798.95 236.767 797.75 238.8C796.55 240.8 795.967 243.9 796 248.1C796 250.867 796.233 253.133 796.7 254.9C797.167 256.633 797.85 257.917 798.75 258.75C799.683 259.583 800.8 260 802.1 260C803.4 260 804.567 259.45 805.6 258.35C806.667 257.25 807.3 255.667 807.5 253.6L807.95 254.65C807.617 256.917 806.817 258.667 805.55 259.9C804.283 261.1 802.583 261.7 800.45 261.7C798.417 261.7 796.617 261.217 795.05 260.25C793.517 259.25 792.333 257.75 791.5 255.75C790.667 253.717 790.25 251.167 790.25 248.1C790.25 245.067 790.75 242.55 791.75 240.55C792.783 238.517 794.15 237 795.85 236C797.55 235 799.433 234.5 801.5 234.5Z" fill="#2F3676"/>
<path fill-rule="evenodd" clip-rule="evenodd" d="M660.188 348.869C663.962 344.44 666.517 339.011 666.09 332.928C664.86 315.401 640.462 319.256 635.716 328.102C630.97 336.949 631.533 359.388 637.667 360.969C640.113 361.599 645.324 360.055 650.628 356.858L647.299 380.409H666.955L660.188 348.869Z" fill="#B28B67"/>
<path fill-rule="evenodd" clip-rule="evenodd" d="M649.645 334.863C648.893 345.344 646.903 350.585 643.674 350.585C638.832 350.585 634.723 347.511 632.598 347.511C631.049 347.511 631.395 349.449 632.422 350.886C633.269 352.072 637.394 353.215 637.394 355.053C637.394 356.891 634.135 355.469 634.135 356.559C634.135 358.362 633.562 361.753 636.692 361.753C639.859 361.753 648.941 360.599 650.498 355.898C651.502 352.864 652.152 346.577 652.446 337.036C652.638 337.014 652.834 337.002 653.032 337.002C655.746 337.002 657.946 339.202 657.946 341.916C657.946 343.294 657.379 344.539 656.466 345.431C657.603 347.036 658.877 348.713 660.337 350.443C665.823 347.152 669.894 337.517 664.531 328.262C663.048 323.728 659.692 321.306 655.729 320.181C652.518 318.838 649.185 318.687 646.372 319.492C640.857 319.965 635.932 321.647 634.536 322.645C634.536 327.867 635.548 329.416 644.189 329.279C646.313 330.401 647.945 332.332 649.645 334.863Z" fill="#191847"/>
<path fill-rule="evenodd" clip-rule="evenodd" d="M569.589 463.207C563.708 455.232 549.009 460.512 549.018 467.114C549.041 484.449 564.86 566.743 565.686 571.939C566.512 577.135 575.36 578.834 575.875 572.342C576.695 562.013 578.218 526.203 576.694 509.543C576.249 504.677 575.78 499.974 575.307 495.567C583.621 510.503 596.263 531.613 613.234 558.899L622.666 554.589C615.259 530.186 609.186 512.958 604.446 502.905C596.33 485.692 588.719 470.952 585.516 465.76C581.286 458.901 574.423 459.812 569.589 463.207Z" fill="#B28B67"/>
<path fill-rule="evenodd" clip-rule="evenodd" d="M621.992 541.037L589.619 464.347C581.863 451.872 560.119 466.886 562.764 474.121C568.768 490.549 599.305 543.731 601.094 548.625L621.992 541.037Z" fill="#1F28CF"/>
<path fill-rule="evenodd" clip-rule="evenodd" d="M548.199 473.102C548.199 494.839 557.727 545.936 557.734 550.722L580.815 549.944C576.781 505.519 575.079 483.155 575.711 482.854C577.132 482.177 633.98 490.722 651.03 491.368C675.616 492.298 685.786 477.215 686.611 448.592H638.988C598.266 453.453 571.502 456.834 558.695 458.735C550.471 459.955 548.199 467.114 548.199 473.102Z" fill="#2B44FF"/>
<path fill-rule="evenodd" clip-rule="evenodd" d="M599.338 536.878L594.053 538.196C587.031 539.947 582.757 547.059 584.508 554.081L586.093 560.438C587.844 567.461 594.956 571.734 601.978 569.983L607.264 568.665C614.286 566.914 618.559 559.802 616.808 552.78L615.223 546.423C613.473 539.4 606.361 535.127 599.338 536.878ZM604.814 543.137C606.569 542.699 608.347 543.767 608.785 545.523L611.546 556.597C611.984 558.353 610.915 560.131 609.16 560.569L596.503 563.724C594.748 564.162 592.97 563.094 592.532 561.338L589.771 550.264C589.333 548.508 590.401 546.73 592.157 546.292L604.814 543.137Z" fill="#C5CFD6"/>
<path fill-rule="evenodd" clip-rule="evenodd" d="M577.128 560.101C578.044 562.547 578.502 564.377 578.502 565.591C578.502 567.068 578.256 569.224 577.764 572.057C576.051 572.057 560.653 572.057 531.571 572.057C530.37 568.088 531.063 565.946 533.65 565.63C536.236 565.313 538.384 565.027 540.095 564.772L561.565 555.201C561.978 555.017 562.463 555.202 562.647 555.615C562.65 555.622 562.653 555.63 562.656 555.637L564.036 558.985C566.43 560.102 568.376 560.66 569.873 560.66C571.089 560.66 572.769 560.169 574.912 559.187L574.912 559.187C575.734 558.81 576.706 559.171 577.083 559.993C577.099 560.028 577.114 560.065 577.128 560.101Z" fill="#E4E4E4"/>
<path d="M537.143 572.057H574.817C576.4 572.057 577.683 573.34 577.683 574.924C577.683 576.507 576.4 577.79 574.817 577.79H537.143C535.559 577.79 534.276 576.507 534.276 574.924C534.276 573.34 535.559 572.057 537.143 572.057Z" fill="#2F3676"/>
<path fill-rule="evenodd" clip-rule="evenodd" d="M689.068 453.301H601.435C596.911 453.301 593.245 456.968 593.245 461.491V501.622H693.982C695.792 501.622 697.258 500.156 697.258 498.346V461.491C697.258 456.968 693.592 453.301 689.068 453.301Z" fill="#2F3676"/>
<path fill-rule="evenodd" clip-rule="evenodd" d="M601.435 453.301H599.638C595.627 453.301 592.206 456.206 591.556 460.164L573.588 569.6H582.34" fill="#2F3676"/>
<path d="M577.683 585.98C569.542 585.98 562.941 579.38 562.941 571.238C562.941 563.096 569.542 556.496 577.683 556.496C585.825 556.496 592.426 563.096 592.426 571.238C592.426 579.38 585.825 585.98 577.683 585.98Z" fill="#191847"/>
<path fill-rule="evenodd" clip-rule="evenodd" d="M686.611 584.342C720.988 584.342 748.856 556.474 748.856 522.098C748.856 487.721 720.988 459.853 686.611 459.853C652.235 459.853 624.367 487.721 624.367 522.098C624.367 556.474 652.235 584.342 686.611 584.342ZM686.611 572.876C658.567 572.876 635.833 550.142 635.833 522.098C635.833 494.053 658.567 471.319 686.611 471.319C714.656 471.319 737.39 494.053 737.39 522.098C737.39 550.142 714.656 572.876 686.611 572.876Z" fill="#191847"/>
<path d="M683.335 468.043H689.887V576.152H683.335V468.043Z" fill="#191847"/>
<path d="M647.231 485.033L649.547 482.717C650.187 482.077 651.224 482.077 651.864 482.717L725.992 556.845C726.632 557.485 726.632 558.522 725.992 559.162L723.675 561.478C723.036 562.118 721.999 562.118 721.359 561.478L647.231 487.35C646.591 486.71 646.591 485.673 647.231 485.033Z" fill="#191847"/>
<path d="M632.557 523.736V520.46C632.557 519.555 633.29 518.822 634.195 518.822H739.028C739.933 518.822 740.666 519.555 740.666 520.46V523.736C740.666 524.64 739.933 525.374 739.028 525.374H634.195C633.29 525.374 632.557 524.64 632.557 523.736Z" fill="#191847"/>
<path d="M649.547 561.478L647.231 559.162C646.591 558.522 646.591 557.485 647.231 556.845L721.359 482.717C721.999 482.077 723.036 482.077 723.675 482.717L725.992 485.033C726.632 485.673 726.632 486.71 725.992 487.35L651.864 561.478C651.224 562.118 650.187 562.118 649.547 561.478Z" fill="#191847"/>
<path fill-rule="evenodd" clip-rule="evenodd" d="M604.071 437.913L577.946 457.097C570.86 459.009 564.941 461.388 560.187 464.233C559.064 465.257 557.706 467.329 562.364 466.971C567.021 466.613 571.936 466.445 572.578 468.034C573.221 469.623 570.403 471.522 571.702 473.666C572.568 475.094 576.659 471.512 583.975 462.917L609.846 452.189L604.071 437.913ZM704.377 438.575L687.262 438.642C697.83 472.757 703.535 490.858 704.377 492.945C706.272 497.642 702.262 504.795 700.547 508.639C706.133 511.138 705.538 501.882 712.584 505.16C719.015 508.152 723.908 513.574 731.338 508.989C732.252 508.425 733.253 506.303 730.834 504.644C724.808 500.512 716.124 493.28 714.951 490.9C713.351 487.654 709.826 470.212 704.377 438.575Z" fill="#B28B67"/>
<path fill-rule="evenodd" clip-rule="evenodd" d="M655.739 366.758L648.657 365.543C622.38 388.242 611.588 431.85 579.379 454.951L587.131 464.56C643.007 457.642 656.857 404.451 655.739 366.758Z" fill="#E87613"/>
<path fill-rule="evenodd" clip-rule="evenodd" d="M686.611 455.758C658.215 455.758 637.327 455.758 623.948 455.758C621.085 455.758 621.624 451.623 622.038 449.537C626.815 425.458 645.463 399.502 645.463 365.225L663.538 362.391C678.489 386.436 683.659 416.04 686.611 455.758Z" fill="#DDE3E9"/>
<path fill-rule="evenodd" clip-rule="evenodd" d="M686.108 386.026C688.733 385.271 690.812 383.511 692.344 380.746C698.951 368.825 696.565 362.262 689.505 360.105C682.445 357.947 676.148 362.391 664.899 362.391C664.288 362.391 663.727 362.429 663.218 362.506L657.56 362.829C641.325 417.85 636.848 454.56 644.128 472.957H693.449C696.371 479.771 699.167 485.504 701.838 490.156H715.277C716.541 449.261 706.819 414.551 686.108 386.026Z" fill="#FF9B21"/>
<path fill-rule="evenodd" clip-rule="evenodd" d="M682.709 444.699C681.158 457.678 678.636 467.097 675.145 472.957H693.449C690.04 465.009 686.46 455.589 682.709 444.699V444.699Z" fill="black" fill-opacity="0.1"/>
<rect x="430" y="638" width="163" height="46" rx="12" fill="#2F3676"/>
<path d="M481.742 658.1C481.382 657.407 480.882 656.887 480.242 656.54C479.602 656.18 478.862 656 478.022 656C477.102 656 476.282 656.207 475.562 656.62C474.842 657.033 474.275 657.62 473.862 658.38C473.462 659.14 473.262 660.02 473.262 661.02C473.262 662.02 473.462 662.907 473.862 663.68C474.275 664.44 474.842 665.027 475.562 665.44C476.282 665.853 477.102 666.06 478.022 666.06C479.262 666.06 480.268 665.713 481.042 665.02C481.815 664.327 482.288 663.387 482.462 662.2H477.242V660.38H484.902V662.16C484.755 663.24 484.368 664.233 483.742 665.14C483.128 666.047 482.322 666.773 481.322 667.32C480.335 667.853 479.235 668.12 478.022 668.12C476.715 668.12 475.522 667.82 474.442 667.22C473.362 666.607 472.502 665.76 471.862 664.68C471.235 663.6 470.922 662.38 470.922 661.02C470.922 659.66 471.235 658.44 471.862 657.36C472.502 656.28 473.362 655.44 474.442 654.84C475.535 654.227 476.728 653.92 478.022 653.92C479.502 653.92 480.815 654.287 481.962 655.02C483.122 655.74 483.962 656.767 484.482 658.1H481.742ZM491.93 668.18C490.89 668.18 489.95 667.947 489.11 667.48C488.27 667 487.61 666.333 487.13 665.48C486.65 664.613 486.41 663.613 486.41 662.48C486.41 661.36 486.657 660.367 487.15 659.5C487.644 658.633 488.317 657.967 489.17 657.5C490.024 657.033 490.977 656.8 492.03 656.8C493.084 656.8 494.037 657.033 494.89 657.5C495.744 657.967 496.417 658.633 496.91 659.5C497.404 660.367 497.65 661.36 497.65 662.48C497.65 663.6 497.397 664.593 496.89 665.46C496.384 666.327 495.69 667 494.81 667.48C493.944 667.947 492.984 668.18 491.93 668.18ZM491.93 666.2C492.517 666.2 493.064 666.06 493.57 665.78C494.09 665.5 494.51 665.08 494.83 664.52C495.15 663.96 495.31 663.28 495.31 662.48C495.31 661.68 495.157 661.007 494.85 660.46C494.544 659.9 494.137 659.48 493.63 659.2C493.124 658.92 492.577 658.78 491.99 658.78C491.404 658.78 490.857 658.92 490.35 659.2C489.857 659.48 489.464 659.9 489.17 660.46C488.877 661.007 488.73 661.68 488.73 662.48C488.73 663.667 489.03 664.587 489.63 665.24C490.244 665.88 491.01 666.2 491.93 666.2ZM512.54 660.86C513.286 660.993 513.92 661.387 514.44 662.04C514.96 662.693 515.22 663.433 515.22 664.26C515.22 664.967 515.033 665.607 514.66 666.18C514.3 666.74 513.773 667.187 513.08 667.52C512.386 667.84 511.58 668 510.66 668H505.1V654.1H510.4C511.346 654.1 512.16 654.26 512.84 654.58C513.52 654.9 514.033 655.333 514.38 655.88C514.726 656.413 514.9 657.013 514.9 657.68C514.9 658.48 514.686 659.147 514.26 659.68C513.833 660.213 513.26 660.607 512.54 660.86ZM507.38 659.94H510.2C510.946 659.94 511.526 659.773 511.94 659.44C512.366 659.093 512.58 658.6 512.58 657.96C512.58 657.333 512.366 656.847 511.94 656.5C511.526 656.14 510.946 655.96 510.2 655.96H507.38V659.94ZM510.46 666.14C511.233 666.14 511.84 665.953 512.28 665.58C512.72 665.207 512.94 664.687 512.94 664.02C512.94 663.34 512.706 662.8 512.24 662.4C511.773 662 511.153 661.8 510.38 661.8H507.38V666.14H510.46ZM516.937 662.44C516.937 661.333 517.164 660.353 517.617 659.5C518.084 658.647 518.711 657.987 519.497 657.52C520.297 657.04 521.177 656.8 522.137 656.8C523.004 656.8 523.757 656.973 524.397 657.32C525.051 657.653 525.571 658.073 525.957 658.58V656.98H528.257V668H525.957V666.36C525.571 666.88 525.044 667.313 524.377 667.66C523.711 668.007 522.951 668.18 522.097 668.18C521.151 668.18 520.284 667.94 519.497 667.46C518.711 666.967 518.084 666.287 517.617 665.42C517.164 664.54 516.937 663.547 516.937 662.44ZM525.957 662.48C525.957 661.72 525.797 661.06 525.477 660.5C525.171 659.94 524.764 659.513 524.257 659.22C523.751 658.927 523.204 658.78 522.617 658.78C522.031 658.78 521.484 658.927 520.977 659.22C520.471 659.5 520.057 659.92 519.737 660.48C519.431 661.027 519.277 661.68 519.277 662.44C519.277 663.2 519.431 663.867 519.737 664.44C520.057 665.013 520.471 665.453 520.977 665.76C521.497 666.053 522.044 666.2 522.617 666.2C523.204 666.2 523.751 666.053 524.257 665.76C524.764 665.467 525.171 665.04 525.477 664.48C525.797 663.907 525.957 663.24 525.957 662.48ZM530.492 662.48C530.492 661.347 530.719 660.353 531.172 659.5C531.639 658.633 532.279 657.967 533.092 657.5C533.905 657.033 534.839 656.8 535.892 656.8C537.225 656.8 538.325 657.12 539.192 657.76C540.072 658.387 540.665 659.287 540.972 660.46H538.512C538.312 659.913 537.992 659.487 537.552 659.18C537.112 658.873 536.559 658.72 535.892 658.72C534.959 658.72 534.212 659.053 533.652 659.72C533.105 660.373 532.832 661.293 532.832 662.48C532.832 663.667 533.105 664.593 533.652 665.26C534.212 665.927 534.959 666.26 535.892 666.26C537.212 666.26 538.085 665.68 538.512 664.52H540.972C540.652 665.64 540.052 666.533 539.172 667.2C538.292 667.853 537.199 668.18 535.892 668.18C534.839 668.18 533.905 667.947 533.092 667.48C532.279 667 531.639 666.333 531.172 665.48C530.719 664.613 530.492 663.613 530.492 662.48ZM547.604 662.5L552.684 668H549.604L545.524 663.26V668H543.244V653.2H545.524V661.8L549.524 656.98H552.684L547.604 662.5Z" fill="white"/>
<rect x="688" y="639" width="161" height="44" rx="11" stroke="#2F3676" stroke-width="2"/>
<path d="M751.11 654.1V668H748.83V661.92H742.29V668H740.01V654.1H742.29V660.06H748.83V654.1H751.11ZM758.891 668.18C757.851 668.18 756.911 667.947 756.071 667.48C755.231 667 754.571 666.333 754.091 665.48C753.611 664.613 753.371 663.613 753.371 662.48C753.371 661.36 753.618 660.367 754.111 659.5C754.605 658.633 755.278 657.967 756.131 657.5C756.985 657.033 757.938 656.8 758.991 656.8C760.045 656.8 760.998 657.033 761.851 657.5C762.705 657.967 763.378 658.633 763.871 659.5C764.365 660.367 764.611 661.36 764.611 662.48C764.611 663.6 764.358 664.593 763.851 665.46C763.345 666.327 762.651 667 761.771 667.48C760.905 667.947 759.945 668.18 758.891 668.18ZM758.891 666.2C759.478 666.2 760.025 666.06 760.531 665.78C761.051 665.5 761.471 665.08 761.791 664.52C762.111 663.96 762.271 663.28 762.271 662.48C762.271 661.68 762.118 661.007 761.811 660.46C761.505 659.9 761.098 659.48 760.591 659.2C760.085 658.92 759.538 658.78 758.951 658.78C758.365 658.78 757.818 658.92 757.311 659.2C756.818 659.48 756.425 659.9 756.131 660.46C755.838 661.007 755.691 661.68 755.691 662.48C755.691 663.667 755.991 664.587 756.591 665.24C757.205 665.88 757.971 666.2 758.891 666.2ZM780.205 656.8C781.072 656.8 781.845 656.98 782.525 657.34C783.219 657.7 783.759 658.233 784.145 658.94C784.545 659.647 784.745 660.5 784.745 661.5V668H782.485V661.84C782.485 660.853 782.239 660.1 781.745 659.58C781.252 659.047 780.579 658.78 779.725 658.78C778.872 658.78 778.192 659.047 777.685 659.58C777.192 660.1 776.945 660.853 776.945 661.84V668H774.685V661.84C774.685 660.853 774.439 660.1 773.945 659.58C773.452 659.047 772.779 658.78 771.925 658.78C771.072 658.78 770.392 659.047 769.885 659.58C769.392 660.1 769.145 660.853 769.145 661.84V668H766.865V656.98H769.145V658.24C769.519 657.787 769.992 657.433 770.565 657.18C771.139 656.927 771.752 656.8 772.405 656.8C773.285 656.8 774.072 656.987 774.765 657.36C775.459 657.733 775.992 658.273 776.365 658.98C776.699 658.313 777.219 657.787 777.925 657.4C778.632 657 779.392 656.8 780.205 656.8ZM797.746 662.22C797.746 662.633 797.72 663.007 797.666 663.34H789.246C789.313 664.22 789.64 664.927 790.226 665.46C790.813 665.993 791.533 666.26 792.386 666.26C793.613 666.26 794.48 665.747 794.986 664.72H797.446C797.113 665.733 796.506 666.567 795.626 667.22C794.76 667.86 793.68 668.18 792.386 668.18C791.333 668.18 790.386 667.947 789.546 667.48C788.72 667 788.066 666.333 787.586 665.48C787.12 664.613 786.886 663.613 786.886 662.48C786.886 661.347 787.113 660.353 787.566 659.5C788.033 658.633 788.68 657.967 789.506 657.5C790.346 657.033 791.306 656.8 792.386 656.8C793.426 656.8 794.353 657.027 795.166 657.48C795.98 657.933 796.613 658.573 797.066 659.4C797.52 660.213 797.746 661.153 797.746 662.22ZM795.366 661.5C795.353 660.66 795.053 659.987 794.466 659.48C793.88 658.973 793.153 658.72 792.286 658.72C791.5 658.72 790.826 658.973 790.266 659.48C789.706 659.973 789.373 660.647 789.266 661.5H795.366Z" fill="#2F3676"/>
</g>
<defs>
<clipPath id="clip0_1_2">
<rect width="1280" height="720" fill="white"/>
</clipPath>
</defs>
</svg>
